<svg width="48" height="48" viewBox="0 0 48 48" fill="none" xmlns="http://www.w3.org/2000/svg">
<path d="M28.0061 11H41.9995C43.0252 11 43.8705 11.7721 43.9861 12.7668L43.9995 13V27C43.9995 28.1046 43.1041 29 41.9995 29C40.9739 29 40.1285 28.2279 40.013 27.2332L39.9995 27L39.9979 17.828L25.4137 32.4142C24.6932 33.1347 23.5596 33.1906 22.775 32.5816L22.5865 32.4154L17.9945 27.8314L7.41835 38.411C6.63742 39.1921 5.37109 39.1923 4.58992 38.4114C3.86884 37.6906 3.8132 36.5561 4.42312 35.7714L4.58947 35.583L16.5786 23.59C17.2991 22.8693 18.4329 22.8133 19.2176 23.4224L19.4061 23.5885L23.9983 28.1728L37.1679 15H28.0061C26.9804 15 26.135 14.2279 26.0195 13.2332L26.0061 13C26.0061 11.9743 26.7781 11.129 27.7728 11.0135L28.0061 11H41.9995H28.0061Z" fill="#AF97F3"/>
</svg>
