<svg width="48" height="48" viewBox="0 0 48 48" fill="none" xmlns="http://www.w3.org/2000/svg">
<path d="M27.5 4H20.5C18.1841 4 16.2768 5.74944 16.0276 7.99888L12.5 8C10.0147 8 8 10.0147 8 12.5V20.1994C9.50014 19.4326 11.1996 19 13 19C19.0751 19 24 23.9249 24 30C24 32.0224 23.4527 33.92 22.4992 35.5495L26.9748 40.0252C28.0499 41.1003 28.2794 42.7007 27.6633 44H35.5C37.9853 44 40 41.9853 40 39.5V12.5C40 10.0147 37.9853 8 35.5 8L31.9724 7.99888C31.7232 5.74944 29.8159 4 27.5 4ZM20.5 7H27.5C28.3284 7 29 7.67157 29 8.5C29 9.32843 28.3284 10 27.5 10H20.5C19.6716 10 19 9.32843 19 8.5C19 7.67157 19.6716 7 20.5 7ZM19.9 35.7787C21.2108 34.2153 22 32.1998 22 30C22 25.0294 17.9706 21 13 21C8.02944 21 4 25.0294 4 30C4 34.9706 8.02944 39 13 39C14.6849 39 16.2616 38.537 17.61 37.7313L23.4393 43.5607C24.0251 44.1464 24.9749 44.1464 25.5607 43.5607C26.1464 42.9749 26.1464 42.0251 25.5607 41.4393L19.9 35.7787ZM13 36C9.68629 36 7 33.3137 7 30C7 26.6863 9.68629 24 13 24C16.3137 24 19 26.6863 19 30C19 33.3137 16.3137 36 13 36Z" fill="#84FBBF"/>
</svg>
