<svg width="48" height="48" viewBox="0 0 48 48" fill="none" xmlns="http://www.w3.org/2000/svg">
<path d="M17.8984 17.1996C17.8984 9.97118 23.77 4.09961 30.9984 4.09961C38.1926 4.09961 44.0984 9.73731 44.0984 16.9996C44.0984 24.228 38.2269 30.0996 30.9984 30.0996C29.9377 30.0996 28.8902 29.9477 27.8968 29.692C27.8481 31.0299 26.7482 32.0996 25.3984 32.0996H21.8984V35.5996C21.8984 36.9803 20.7791 38.0996 19.3984 38.0996H15.8984V40.5996C15.8984 42.5326 14.3314 44.0996 12.3984 44.0996H7.39844C5.46544 44.0996 3.89844 42.5326 3.89844 40.5996V36.2565C3.89844 34.7978 4.4779 33.3988 5.50935 32.3674L17.9809 19.8958C18.0899 19.7869 18.155 19.6106 18.1194 19.4076C17.9988 18.7203 17.8984 17.974 17.8984 17.1996ZM36.4985 13.9996C36.4985 12.6189 35.3792 11.4996 33.9985 11.4996C32.6178 11.4996 31.4985 12.6189 31.4985 13.9996C31.4985 15.3803 32.6178 16.4996 33.9985 16.4996C35.3792 16.4996 36.4985 15.3803 36.4985 13.9996Z" fill="#80DEFC"/>
</svg>
