<svg width="48" height="48" viewBox="0 0 48 48" fill="none" xmlns="http://www.w3.org/2000/svg">
<path d="M26.9771 6.09284C25.9611 3.84535 22.7694 3.84535 21.7534 6.09284C21.008 7.74176 18.94 8.29588 17.47 7.24058C15.4663 5.8022 12.7022 7.39805 12.9461 9.85243C13.125 11.6531 11.6111 13.167 9.81044 12.9881C7.35606 12.7442 5.76021 15.5083 7.19859 17.512C8.25389 18.982 7.69977 21.05 6.05085 21.7954C3.80336 22.8114 3.80336 26.0031 6.05085 27.0191C7.69977 27.7645 8.25389 29.8325 7.19859 31.3025C5.76021 33.3061 7.35606 36.0702 9.81044 35.8263C11.6111 35.6474 13.125 37.1613 12.9461 38.962C12.7022 41.4164 15.4663 43.0123 17.47 41.5739C18.94 40.5186 21.008 41.0727 21.7534 42.7216C22.7694 44.9691 25.9611 44.9691 26.9771 42.7216C27.7225 41.0727 29.7905 40.5186 31.2605 41.5739C33.2641 43.0123 36.0282 41.4164 35.7843 38.962C35.6054 37.1613 37.1193 35.6474 38.92 35.8263C41.3744 36.0702 42.9703 33.3061 41.5319 31.3025C40.4766 29.8325 41.0307 27.7645 42.6796 27.0191C44.9271 26.0031 44.9271 22.8114 42.6796 21.7954C41.0307 21.05 40.4766 18.982 41.5319 17.512C42.9703 15.5083 41.3744 12.7442 38.92 12.9881C37.1193 13.167 35.6054 11.6531 35.7843 9.85243C36.0282 7.39805 33.2641 5.8022 31.2605 7.24058C29.7905 8.29588 27.7225 7.74176 26.9771 6.09284ZM19.5372 17.1651C19.5372 14.4987 21.6987 12.3371 24.3652 12.3371C27.0316 12.3371 29.1931 14.4987 29.1931 17.1651C29.1931 19.8315 27.0316 21.9931 24.3652 21.9931C21.6987 21.9931 19.5372 19.8315 19.5372 17.1651ZM18.3301 24.4071L30.4002 24.4071C32.4 24.4071 34.0211 26.0283 34.0211 28.0281C34.0211 30.7223 32.9132 32.8809 31.095 34.3403C29.3056 35.7765 26.9073 36.4771 24.3652 36.4771C21.823 36.4771 19.4247 35.7765 17.6353 34.3403C15.8171 32.8809 14.7092 30.7223 14.7092 28.0281C14.7092 26.0284 16.3303 24.4071 18.3301 24.4071Z" fill="#B1B1BF"/>
</svg>
